<svg xmlns="http://www.w3.org/2000/svg" viewBox="0 0 512 512" id="ai">
  <circle cx="185.45" cy="226.035" r="100.8" fill="#edebf2" transform="rotate(-45 185.45 226.035)"></circle>
  <path fill="#ebb894" fill-rule="evenodd" d="M185.449,440.089h196.432v-42.5s-40.82-26.666-122.461-79.999c0,0-24.657,27.965-73.971,83.895v38.604Z"></path>
  <path fill="#f6ccaf" fill-rule="evenodd" d="M211.879,440.089h170.002v-42.5s-40.82-26.666-122.461-79.999l-17.752,20.134-29.789,50.997v51.367Z"></path>
  <path fill="#ffdec7" fill-rule="evenodd" d="M211.88,52.566c-6.185,14.915-10.9,30.105-14.229,45.403,65.325,6.147,116.444,61.133,116.444,128.067,0,43.537-21.631,82.018-54.729,105.296,18.409,20.542,40.304,38.502,65.366,52.909,54.461,26.917,130.21,7.981,127.808-9.925,0,0-1.879-24.234-5.634-72.706,31.106-5.374,49.108-13.808,54.006-25.303,1.746-4.101,1.377-8.425-1.038-12.168-17.224-26.689-30.579-37.801-30.122-70.561,.511-36.638-9.663-72.795-29.499-103.945-23.719-38.352-62.953-64.481-107.484-71.587-44.531-7.106-86.415,5.457-120.891,34.522Z"></path>
  <path fill="#3a90e0" fill-rule="evenodd" d="M198.174,204.826c-1.297-2.618-1.947-5.475-1.947-8.331,0-4.801,1.832-9.603,5.496-13.267,3.664-3.664,8.465-5.496,13.266-5.496s9.603,1.832,13.266,5.496c3.664,3.664,5.496,8.465,5.496,13.267s-1.832,9.602-5.496,13.266c-3.664,3.664-8.466,5.496-13.266,5.496-2.857,0-5.714-.649-8.332-1.947l-97.643,97.643-8.484-8.484,97.643-97.643h0Zm-73.774,115.362l8.484,8.484,66.703-66.703,13.898,3.724c.277,4.399,2.096,8.718,5.459,12.08,3.664,3.664,8.465,5.496,13.266,5.496s9.603-1.832,13.266-5.496c3.664-3.664,5.496-8.465,5.496-13.266s-1.832-9.602-5.496-13.266c-3.664-3.664-8.465-5.496-13.266-5.496s-9.602,1.832-13.266,5.496c-.896,.896-1.682,1.86-2.359,2.876l-16.944-4.54c-2.076-.672-4.446-.184-6.095,1.465l-69.146,69.146h0Zm101.048-55.68c0,1.731,.66,3.462,1.98,4.782,1.32,1.32,3.051,1.98,4.782,1.98s3.462-.66,4.782-1.98c1.319-1.32,1.98-3.051,1.98-4.782s-.66-3.462-1.98-4.782c-1.32-1.32-3.051-1.98-4.782-1.98s-3.463,.66-4.782,1.98-1.98,3.051-1.98,4.782h0Zm-142.636,14.092l8.484,8.484,69.146-69.146c1.649-1.649,2.137-4.019,1.465-6.095l-4.54-16.943c1.015-.677,1.98-1.463,2.876-2.359h0c3.663-3.664,5.496-8.466,5.496-13.266s-1.832-9.602-5.496-13.266h0c-3.664-3.664-8.465-5.496-13.266-5.496s-9.603,1.832-13.266,5.496c-3.664,3.663-5.496,8.465-5.496,13.266s1.832,9.602,5.496,13.266c3.362,3.362,7.682,5.182,12.081,5.459l3.724,13.898-66.703,66.703h0Zm59.382-94.544c1.32,1.32,3.051,1.98,4.782,1.98s3.462-.66,4.782-1.98h0c1.319-1.32,1.979-3.051,1.979-4.782s-.66-3.462-1.979-4.781h0c-1.319-1.32-3.051-1.98-4.782-1.98s-3.463,.66-4.782,1.98c-1.32,1.32-1.98,3.051-1.98,4.782s.66,3.462,1.98,4.782h0Zm66.034,12.438c0,1.731,.66,3.462,1.98,4.782s3.051,1.98,4.782,1.98,3.462-.66,4.782-1.98,1.98-3.051,1.98-4.782-.66-3.463-1.98-4.782c-1.32-1.32-3.051-1.98-4.782-1.98s-3.463,.66-4.782,1.98c-1.32,1.32-1.98,3.051-1.98,4.782Z"></path>
  <g>
    <path fill="#fc6" fill-rule="evenodd" d="M230.684,85.138c7.763,2.49,15.244,5.609,22.389,9.288l18.274-4.897,18.049-4.837c14.267,10.511,26.884,23.129,37.396,37.396l-4.837,18.048-4.894,18.266c3.681,7.148,6.799,14.635,9.291,22.401l16.361,9.446,16.204,9.356c1.303,8.621,1.981,17.445,1.981,26.43s-.679,17.81-1.981,26.43l-16.204,9.355-16.366,9.45c-2.491,7.763-5.609,15.244-9.288,22.389l4.897,18.274,4.837,18.049c-10.511,14.268-23.129,26.884-37.396,37.396l-18.048-4.837-18.266-4.894c-7.148,3.681-14.635,6.799-22.401,9.291l-9.446,16.361-9.356,16.204c-8.621,1.303-17.445,1.981-26.43,1.981s-17.81-.679-26.43-1.981l-9.355-16.204-9.45-16.366c-7.763-2.491-15.244-5.609-22.389-9.288l-18.274,4.897-18.049,4.837c-14.268-10.511-26.884-23.129-37.396-37.396l4.837-18.048,4.894-18.266c-3.681-7.148-6.799-14.635-9.291-22.401l-16.361-9.446-16.205-9.356c-1.303-8.621-1.981-17.445-1.981-26.43s.679-17.81,1.981-26.43l16.205-9.355,16.363-9.448c2.492-7.766,5.607-15.252,9.289-22.4l-4.894-18.265-4.837-18.049c10.511-14.268,23.129-26.884,37.396-37.396l18.048,4.837,18.267,4.894c7.147-3.68,14.632-6.795,22.397-9.286l9.449-16.366,9.356-16.205c8.621-1.303,17.445-1.981,26.43-1.981s17.81,.679,26.43,1.981l9.355,16.205,9.45,16.366h0Zm-45.234,39.745c-55.865,0-101.153,45.288-101.153,101.153s45.288,101.153,101.153,101.153,101.153-45.288,101.153-101.153-45.288-101.153-101.153-101.153Z"></path>
    <path fill="#ffba55" fill-rule="evenodd" d="M230.681,366.938l-9.446,16.361-9.356,16.204c-8.621,1.303-17.445,1.981-26.43,1.981s-17.81-.679-26.43-1.981l-9.355-16.204-9.45-16.366c-7.763-2.491-15.244-5.609-22.389-9.288l-18.274,4.897-18.049,4.837c-14.268-10.511-26.884-23.129-37.396-37.396l4.837-18.048,4.894-18.266c-3.681-7.148-6.799-14.635-9.291-22.401l-16.361-9.446-16.205-9.356c-1.303-8.621-1.981-17.445-1.981-26.43s.679-17.81,1.981-26.43l16.205-9.355,16.363-9.448c2.492-7.766,5.607-15.252,9.289-22.4l-4.894-18.265-4.837-18.049c10.511-14.268,23.129-26.884,37.396-37.396l18.048,4.837,18.267,4.894c-56.099,41.504-76.729,115.876-50.028,180.348,26.701,64.472,93.874,102.48,162.891,92.166Z"></path>
  </g>
  <rect width="241.884" height="55.812" x="162.723" y="440.089" fill="#6fabe6" rx="22.726" ry="22.726"></rect>
  <path fill="#82bcf4" fill-rule="evenodd" d="M185.449,440.089h196.433c12.499,0,22.726,10.226,22.726,22.726v10.361c0,.811-.044,1.611-.128,2.401H162.851c-.084-.789-.128-1.59-.128-2.401v-10.361c0-12.499,10.226-22.726,22.726-22.726Z"></path>
  <path fill-rule="evenodd" d="M142.194,184.065c-2.628-2.637-2.63-6.927-.001-9.563,2.642-2.639,6.931-2.637,9.57,0,1.28,1.276,1.98,2.975,1.98,4.781,.002,1.805-.7,3.504-1.98,4.782-2.639,2.635-6.93,2.636-9.569,0h0Zm66.042,12.438c0-1.806,.698-3.504,1.978-4.782,1.28-1.277,2.97-1.98,4.78-1.98,1.811-.001,3.51,.704,4.78,1.981,1.283,1.276,1.98,2.975,1.98,4.781s-.7,3.505-1.98,4.782c-1.268,1.275-2.97,1.98-4.78,1.98-1.807,0-3.5-.703-4.78-1.98-1.276-1.279-1.98-2.976-1.978-4.782h0Zm17.222,68.013c0-1.807,.695-3.503,1.976-4.781,1.281-1.278,2.97-1.98,4.779-1.98,1.812,0,3.5,.703,4.78,1.981,1.28,1.277,1.98,2.975,1.98,4.781,.002,1.806-.7,3.504-1.98,4.782-1.276,1.276-2.97,1.98-4.78,1.98-1.806-.002-3.5-.703-4.779-1.98-1.279-1.28-1.98-2.976-1.98-4.782h.003Zm-40.001,56.679l-.003,.002c52.47,0,95.152-42.686,95.151-95.153,0-52.468-42.677-95.153-95.151-95.153-52.47,0-95.149,42.684-95.15,95.153,0,13.275,2.733,25.919,7.674,37.41l51.538-51.543-3.742-13.932c-4.39-.28-8.71-2.079-12.06-5.429-7.32-7.315-7.32-19.22,0-26.533,7.32-7.316,19.221-7.316,26.53,0,3.55,3.544,5.503,8.255,5.5,13.267,0,5.012-1.95,9.723-5.5,13.267-.89,.893-1.851,1.674-2.867,2.349l4.627,17.253c.55,2.07-.037,4.279-1.558,5.794l-56.742,56.742c3.029,5.065,6.513,9.826,10.392,14.227l84.098-84.091c-1.27-2.557-1.959-5.385-1.96-8.321,0-5.011,1.954-9.724,5.49-13.266,3.55-3.544,8.263-5.497,13.27-5.496,5.01,0,9.722,1.95,13.27,5.496,3.54,3.543,5.492,8.253,5.491,13.266,0,5.012-1.947,9.722-5.491,13.267-3.549,3.544-8.26,5.493-13.27,5.495-2.94,0-5.759-.69-8.319-1.956l-84.091,84.093c4.4,3.883,9.162,7.363,14.233,10.389l56.737-56.739c1.51-1.515,3.72-2.107,5.791-1.554l17.249,4.622c.68-1.02,1.471-1.983,2.35-2.869,3.55-3.543,8.264-5.497,13.27-5.495,5.011,0,9.723,1.951,13.27,5.496,3.54,3.543,5.494,8.254,5.49,13.266,0,5.012-1.95,9.721-5.49,13.267-3.55,3.543-8.258,5.495-13.27,5.495-5.009,0-9.717-1.953-13.27-5.495,0,0,.002-.002,0,0-3.25-3.258-5.15-7.51-5.429-12.068l-13.928-3.73-51.543,51.543c11.49,4.933,24.143,7.668,37.413,7.668h0Zm107.149-95.153c0-59.085-48.072-107.152-107.153-107.152-59.077-.002-107.15,48.069-107.15,107.153,.004,59.082,48.07,107.153,107.15,107.153,59.084-.002,107.15-48.069,107.153-107.154h0Zm202.788,47.918c.969-2.276,.784-4.484-.561-6.562-3.29-5.102-6.396-9.579-9.42-13.905-12.321-17.698-22.051-31.676-21.66-59.992,.5-35.717-9.368-70.518-28.561-100.639-22.86-36.965-60.516-62.048-103.36-68.885-40.601-6.477-79.277,3.901-112.199,30.019l15.11,26.167c6.47,2.188,12.84,4.831,18.991,7.88l34.109-9.138c1.76-.473,3.651-.118,5.119,.965,14.771,10.883,27.782,23.892,38.66,38.668,1.091,1.469,1.442,3.348,.971,5.11l-9.14,34.103c3.05,6.15,5.693,12.526,7.88,19.008l30.59,17.659c1.58,.913,2.661,2.495,2.93,4.299,1.36,8.99,2.052,18.182,2.05,27.327,0,9.137-.686,18.33-2.05,27.326-.27,1.805-1.35,3.388-2.929,4.299l-30.591,17.661c-2.19,6.475-4.829,12.847-7.88,18.996l9.14,34.112c.469,1.762,.121,3.641-.971,5.112-10.879,14.768-23.888,27.777-38.66,38.667-1.469,1.084-3.349,1.437-5.118,.965l-34.101-9.138c-6.141,3.048-12.519,5.691-19.008,7.885l-17.653,30.583c-.92,1.58-2.498,2.658-4.3,2.933-7.03,1.062-14.178,1.707-21.328,1.944v26.707h184.428v-30.802c-19.62-1.3-38.25-5.976-53.8-13.666-2.98-1.468-4.187-5.068-2.73-8.037,1.469-2.97,5.072-4.19,8.04-2.721,42.63,21.069,99.033,12.215,115.529,.374,3.2-2.301,3.714-3.839,3.67-4.123-.01-.111-.02-.222-.029-.335l-5.631-72.705c-.24-3.087,1.909-5.849,4.96-6.376,35.9-6.202,46.742-15.248,49.501-21.743h0Zm-96.777,188.86v10.361c0,9.223-7.514,16.726-16.734,16.726H185.457c-9.22-.001-16.733-7.503-16.733-16.725l.002-10.362c0-9.223,7.508-16.725,16.728-16.725l196.432-.002c9.221,0,16.728,7.505,16.728,16.728h.003Zm-253.201-98.882l17.347,30.043c14.99,2.005,30.411,2.004,45.383,0l17.348-30.036c.739-1.291,1.944-2.258,3.36-2.713,7.36-2.363,14.591-5.363,21.49-8.912,1.32-.683,2.852-.848,4.301-.463l33.489,8.978c12.1-9.234,22.891-20.017,32.112-32.111l-8.982-33.507c-.38-1.44-.216-2.975,.47-4.299,3.55-6.902,6.55-14.129,8.9-21.476,.46-1.419,1.43-2.618,2.721-3.363l30.038-17.345c1-7.494,1.511-15.116,1.51-22.693,0-7.584-.508-15.204-1.507-22.694l-30.043-17.342c-1.29-.745-2.258-1.943-2.71-3.362-2.36-7.36-5.357-14.592-8.91-21.489-.69-1.326-.848-2.859-.456-4.299l8.967-33.496c-9.231-12.1-20.01-22.882-32.11-32.112l-33.5,8.98c-1.45,.385-2.977,.221-4.3-.461-6.91-3.556-14.139-6.554-21.48-8.909-1.42-.456-2.618-1.423-3.356-2.715l-17.354-30.041c-14.98-2.004-30.409-2.006-45.38,0l-17.35,30.043c-.74,1.291-1.937,2.258-3.36,2.714-7.36,2.361-14.588,5.358-21.49,8.907-1.32,.683-2.849,.846-4.289,.461l-33.5-8.976c-12.1,9.235-22.889,20.015-32.11,32.108l8.969,33.498c.39,1.441,.233,2.972-.46,4.3-3.54,6.883-6.538,14.112-8.91,21.487-.45,1.418-1.417,2.617-2.709,3.362l-30.04,17.344c-1,7.494-1.509,15.112-1.51,22.693,0,7.578,.51,15.198,1.514,22.693l30.036,17.342c1.29,.745,2.251,1.943,2.71,3.364,2.361,7.364,5.364,14.594,8.91,21.486,.68,1.327,.85,2.859,.463,4.299l-8.973,33.499c9.23,12.1,20.011,22.882,32.112,32.109l33.497-8.978c1.44-.386,2.984-.222,4.301,.461,6.91,3.556,14.132,6.553,21.48,8.909,1.42,.456,2.62,1.422,3.362,2.713h0Zm359.51-103.05c-3.411-5.278-6.592-9.841-9.662-14.254-11.947-17.169-19.85-28.51-19.51-52.968,.534-38.064-9.99-75.15-30.39-107.184-24.655-39.868-65.351-66.969-111.639-74.357-44.889-7.163-87.561,4.648-123.611,34.138-17.168-2.331-34.889-2.206-51.99,.377-1.799,.273-3.38,1.352-4.3,2.933l-17.659,30.586c-6.48,2.191-12.861,4.836-19,7.882l-34.1-9.14c-1.768-.472-3.65-.117-5.121,.966-14.778,10.889-27.79,23.9-38.66,38.667-1.089,1.467-1.44,3.35-.97,5.112l9.142,34.099c-3.038,6.14-5.692,12.517-7.882,19.011l-30.589,17.657c-1.579,.914-2.662,2.496-2.932,4.301-1.356,8.994-2.05,18.189-2.05,27.326s.69,18.33,2.05,27.326c.273,1.804,1.351,3.388,2.931,4.3l30.583,17.655c2.2,6.489,4.836,12.866,7.887,19.013l-9.138,34.098c-.472,1.762-.123,3.646,.968,5.115,10.881,14.775,23.89,27.785,38.66,38.667,1.471,1.081,3.35,1.437,5.11,.965l34.121-9.143c6.152,3.051,12.52,5.696,18.99,7.884l17.662,30.586c.918,1.579,2.497,2.661,4.297,2.934,7.034,1.062,14.18,1.709,21.33,1.944v27.342c-12.969,2.767-22.73,14.31-22.73,28.092v10.36c0,15.838,12.89,28.726,28.73,28.726h196.432c15.84,0,28.727-12.886,28.727-28.725v-10.362c.001-13.781-9.76-25.322-22.73-28.089l.002-31.063c2.501-.011,5.008-.067,7.518-.188,22.681-1.084,43.57-6.636,54.511-14.488,7.901-5.668,9.06-11.399,8.599-15.273l-5.199-67.174c30.24-5.859,47.639-15,53.12-27.881,2.523-5.905,1.969-12.382-1.509-17.774Z"></path>
</svg>
