<svg xmlns="http://www.w3.org/2000/svg" width="512" height="512" id="books">
  <path d="M294.423 401.876C289.69 401.23 285.233 399.549 280.781 397.89L118.583 332.275C98.8187 323.197 85.0403 304.411 82.4837 282.775C80.2505 263.875 88.8431 240.749 105.914 230.767C110.491 228.091 115.754 227.174 120.427 224.735C125.399 222.138 129.763 218.509 134.797 215.887L365.106 101.716C369.876 99.5589 374.925 96.6554 380.165 96.0458C385.686 96.5113 388.34 101.422 391.806 105.174C398.776 112.721 407.96 118.103 416.865 123.031C451.646 142.279 490.173 153.625 524.736 173.404C535.165 179.372 576.011 203.263 565.631 219.375C563.385 222.862 556.535 223.675 552.806 224.642L542.456 227.302C543.568 241.192 538.135 237.78 527.702 243.336C521.842 246.458 519.064 255.073 517.303 261.069C512.785 276.446 512.623 292.232 520.497 306.532C527.169 305.015 538.638 303.466 537.243 314.156C536.618 318.95 530.067 320.912 526.303 322.347L337.18 390.171C324.944 394.663 307.653 403.837 294.423 401.876ZM377.844 114.082C370.946 116.579 364.437 119.718 357.82 122.863L152.221 225.221C149.866 226.463 147.113 227.464 144.888 228.865C150.947 230.921 156.731 233.992 162.56 236.624L296.935 293.021C303.205 295.542 309.409 299.328 316.356 297.725C319.749 297.106 323.618 296.089 327.058 296.757C330.264 297.379 330.306 298.317 333.416 297.048L510.832 231.82C520.862 228.393 530.371 224.359 541.13 224.835C541.12 216.305 549.397 210.852 547.263 208.725C530.295 191.815 494.297 175.369 472.777 166.115C442.989 153.305 405.916 139.967 381.844 117.7C380.587 116.537 379.247 115.01 377.844 114.082ZM123.825 240.395C95.0157 245.168 88.9786 293.05 116.012 312.025C120.429 315.126 125.3 317.354 130.214 319.531L259.047 371.784C269.688 376.113 280.472 380.641 291.447 384.042C303.805 387.87 316.265 380.727 327.693 376.562L484.776 319.982L506.13 312.713C497.057 298.014 496.172 280.25 500.111 263.735L503.797 252.449C498.838 253.465 494.13 255.228 489.359 256.88L333.124 313.374C327.781 314.955 321.644 317.668 316.475 314.164L314.9 312.93C314.431 312.561 314.151 312.401 313.542 312.494C304.015 313.958 301.519 312.112 292.812 308.735L170.865 258.071L147.097 247.32C140.152 244.144 131.757 239.254 123.825 240.395Z" transform="scale(.8)"></path>
  <path d="M340.861 234.783C324.739 236.169 306.662 233.364 293.906 222.707 284.386 214.753 281.045 203.659 289.722 193.594 299.285 182.502 314.955 178.563 328.997 177.634 344.526 176.316 364.094 179.956 376.273 190.106 386.15 198.338 387.491 209.432 379.002 219.176 369.688 229.869 354.488 233.886 340.861 234.783zM329.604 193.887C320.012 194.555 305.973 196.768 300.521 205.884 307.049 218.943 328.463 218.88 341.015 218.761 347.228 218.293 367.428 214.152 368.687 206.094 363.392 196.143 340.239 192.273 329.604 193.887zM159.192 319.289C139.857 317.961 117.887 303.516 114.423 283.552 112.635 273.251 115.812 254.26 128.559 252.3 132.395 252.456 135.569 253.942 136.676 257.969 138.874 265.968 126.436 269.172 130.914 283.906 136.93 303.701 176.46 300.217 165.299 315.801 163.636 318.123 161.925 318.839 159.192 319.289zM299.318 376.488C281.661 378.676 256.902 361.842 251.692 344.718 249.028 335.961 248.146 316.796 259.551 313.467 264.563 313.36 270.21 316.983 268.609 322.084 266.597 328.491 264.772 333.924 267.274 340.522 270.958 350.235 281.707 356.532 291.291 359.179 297.287 360.836 310.631 362.177 305.222 372.145 303.847 374.679 301.937 375.645 299.318 376.488z" transform="scale(.8)"></path>
  <path d="M112.793 457.289C84.3953 439.879 71.6575 402.124 88.4764 372.487C95.8143 359.557 109.472 346.945 125.197 346.906C134.32 346.883 143.046 352.165 151.037 356.052L230.289 392.132C249.291 400.568 268.244 409.117 287.842 416.099C319.361 427.327 318.925 422.449 347.962 410.752L534.07 337.483C538.262 335.732 542.144 333.458 546.547 332.239C552.514 331.92 557.556 335.11 556.041 342.055C553.869 352.016 538.827 343.273 533.348 371.307C530.366 386.562 531.99 402.347 540.83 415.462C546.454 414.367 553.078 414.089 555.387 420.562C557.432 426.294 554.731 429.138 549.732 431.244L368.543 501.793L323.203 519.06C279.228 536.212 280.628 535.244 234.44 514.557L134.664 468.284C127.266 464.856 119.808 461.463 112.793 457.289ZM518.903 361.406C513.11 363.052 507.601 365.669 501.99 367.842L340.1 431.506C309.687 443.677 308.383 440.747 280.613 430.674L212.91 402.25L138.45 367.572C122.433 359.43 111.443 364.138 102.361 380.391C91.744 399.391 97.4022 420.48 111.591 435.775C120.958 445.072 132.03 449.222 143.848 454.618L236.638 497.728C247.095 502.443 257.614 507.546 268.398 511.449C280.966 515.997 288.079 515.251 300.124 510.831L526.737 423.227C517.349 409.114 513.629 387.104 517.054 370.239L518.903 361.406Z" transform="scale(.8)"></path>
  <path d="M286.534 499.015C273.072 501.201 254.151 485.884 249.046 474.701C244.584 464.929 242.929 444.152 255.054 438.764C269.864 438.181 262.213 451.25 261.699 459.184C261.023 469.601 270.772 478.511 279.864 481.607C283.768 482.937 295.93 485.233 292.943 493.018L292.6 493.851C291.436 496.592 289.19 497.997 286.534 499.015Z" transform="scale(.8)"></path>
</svg>
