<svg xmlns="http://www.w3.org/2000/svg" enable-background="new 0 0 93 93" viewBox="0 0 93 93" id="degree">
  <path fill="#F6E2EE" d="M33.09058 37.69619H9.84302c-4.60791 0-8.34302 3.73529-8.34302 8.34296s3.73511 8.34296 8.34302 8.34296h23.24756c4.60742 0 8.34277-3.73529 8.34277-8.34296S37.698 37.69619 33.09058 37.69619zM83.15698 23.09097h-8.84619c-4.60791 0-8.34302 3.73523-8.34302 8.3429v.00006c0 4.60767 3.73511 8.3429 8.34302 8.3429h8.84619c4.60767 0 8.34302-3.73523 8.34302-8.3429v-.00006C91.5 26.82619 87.76465 23.09097 83.15698 23.09097zM80.64966 63.64999H65.78442c-4.60767 0-8.34277 3.73523-8.34277 8.3429v.00006c0 4.60767 3.73511 8.3429 8.34277 8.3429h14.86523c4.60767 0 8.34277-3.73523 8.34277-8.3429v-.00006C88.99243 67.38522 85.25732 63.64999 80.64966 63.64999z"></path>
  <path fill="#FFF" d="M18.58002,50.66865c-3.52759,4.80597-3.52759,12.22975,0,17.03572
		c0.5076,0.69154,1.34512,1.08088,2.19911,0.99975c23.54978-2.23719,29.1997-2.22786,52.90487,0.02885
		c0.73219,0.0697,1.48344-0.18562,1.97511-0.73265c4.22235-4.69783,4.47916-12.25455,0.08695-17.47607
		c-0.5178-0.61556-1.30604-0.95614-2.1068-0.87993c-23.66755,2.25254-29.32518,2.26044-52.86013,0.02459
		C19.92514,49.58777,19.08761,49.9771,18.58002,50.66865z"></path>
  <path fill="#CF95C2" d="M53.3193,67.03381H41.54937c1.95729-5.21545,2.08128-10.46849,0-15.76676H53.3193
		C55.20372,56.81221,55.21587,62.06969,53.3193,67.03381z"></path>
  <polygon fill="#CF95C2" points="53.469 79.411 47.434 75.484 41.549 79.411 41.549 67.034 53.469 67.034"></polygon>
  <path fill="#CF95C2" d="M64.85938,28.56887h-34.8501l0.00024,13.78845c0,5.97589,34.8501,5.97589,34.8501,0L64.85938,28.56887z"></path>
  <polygon fill="#FFF" points="21.652 27.717 47.429 20.99 73.217 27.717 47.429 34.443"></polygon>
  <path fill="#CF95C2" d="M73.21704,36.39559L73.21704,36.39559c-1.19873,0-2.17041,0.97174-2.17041,2.17041v3.21381h4.34082V38.566
		C75.38745,37.36733,74.41577,36.39559,73.21704,36.39559z"></path>
  <circle cx="40.215" cy="39.859" r="2.019" fill="#FFF"></circle>
  <circle cx="47.435" cy="39.859" r="2.019" fill="#FFF"></circle>
  <circle cx="54.654" cy="39.859" r="2.019" fill="#FFF"></circle>
  <ellipse cx="47.434" cy="27.717" fill="#CF95C2" rx="4.113" ry="1.737"></ellipse>
  <path fill="#010101" d="M76.12622 50.20406c-.63013-.75-1.57007-1.14996-2.53003-1.06-23.40439 2.2186-29.30747 2.23978-52.77002.03003-1.03003-.10004-2.04004.35999-2.65015 1.20001-3.62988 4.94-3.62988 12.67999 0 17.63.61011.82996 1.62012 1.29999 2.65015 1.19995 8.48999-.81 14.65991-1.32001 20.21997-1.53998v11.75c0 .17999.1001.34998.27002.44.15991.08002.35986.07001.51001-.03003l5.61011-3.73999 5.75977 3.75c.16291.10169.36363.10354.51001.02002.16016-.09003.26001-.26001.26001-.44V67.69405c5.40015.25 11.45996.76001 19.66992 1.54004.1001.01001.19019.01001.29004.01001.82007 0 1.59009-.33002 2.1001-.91003C80.55615 63.3041 80.59619 55.51406 76.12622 50.20406zM52.95605 51.76406c1.69019 5.17999 1.69995 10.15002.02002 14.77002H42.2561c1.72998-5 1.72998-9.96002.01001-14.77002C51.72334 51.89963 47.82907 51.78127 52.95605 51.76406zM20.73608 68.20406c-.67993.06-1.3501-.23999-1.75-.79999-3.38989-4.60999-3.38989-11.83002 0-16.44.3999-.54999 1.07007-.85999 1.75-.79999 8.59009.82001 14.83008 1.34003 20.4502 1.56 1.83984 4.84003 1.82983 9.85999-.03027 14.92999C35.53613 66.8641 29.32617 67.38406 20.73608 68.20406zM52.96606 78.48409l-5.26001-3.41998c-.17659-.11071-.38759-.10154-.55005 0l-5.10986 3.40997V67.63406c3.69995-.12994 7.16992-.12 10.91992.03003V78.48409zM75.28613 67.66409c-.36987.40997-.95996.62-1.55005.57001-8.25-.79004-14.33008-1.29999-19.76001-1.54004 1.67017-4.71997 1.67993-9.75995.01001-15.00995 5.41016-.25 11.47998-.76001 19.7002-1.54004.63989-.06 1.25977.20001 1.67993.70001C79.5061 55.77407 79.47607 63.00411 75.28613 67.66409zM21.52612 28.20406l7.97998 2.08002v12.07001c0 3.67999 9.66016 4.98999 17.93018 4.98999 8.26978 0 17.91992-1.31 17.91992-4.98999V30.28408l7.35986-1.91998v7.57001c-1.22998.23999-2.16992 1.32996-2.16992 2.63v3.21997c0 .27002.21997.5.5.5h4.33984c.28027 0 .5-.22998.5-.5v-3.21997c0-1.30005-.93994-2.39001-2.16992-2.63v-8.22003c0-.26298-.22386-.47038-.41992-.48999l-25.73999-6.71997c-.08008-.02002-.17017-.02002-.25 0l-25.78003 6.72998c-.21997.06-.37012.26001-.37012.47998C21.15601 27.94405 21.30615 28.14407 21.52612 28.20406zM64.3562 42.35409c0 2.23999-7.43018 3.98999-16.91992 3.98999-9.49023 0-16.93018-1.75-16.93018-3.98999v-11.81l16.80005 4.38c.04004.01001.07983.01996.11987.01996.05005 0 .09009-.00995.13013-.01996l16.80005-4.38V42.35409zM74.88599 38.56411v2.71997h-3.33984v-2.71997c0-.92004.75-1.67004 1.66992-1.67004S74.88599 37.64407 74.88599 38.56411zM47.42603 21.50411l21.89014 5.70996H51.93628c-.47021-1.13-2.54004-1.72998-4.5-1.72998-2.24023 0-4.61011.77997-4.61011 2.22998 0 1.67953 2.91169 2.23999 4.61011 2.23999 1.48365 0 3.99782-.4392 4.50977-1.73999 6.46614 0 10.82671 0 17.37012 0-9.53007 2.47868-12.26033 3.19806-21.89014 5.71002-2.43287-.63506 8.81194 2.30022-23.79004-6.21002L47.42603 21.50411zM47.43628 28.95406c-1.17249 0-3.61011-.47095-3.61011-1.23999 0-.48999 1.43994-1.22998 3.61011-1.22998 2.16992 0 3.60986.73999 3.60986 1.22998C51.04614 28.50156 48.65104 28.95406 47.43628 28.95406z"></path>
  <g>
    <circle cx="21.652" cy="15.433" r="1.896" fill="#F3765D"></circle>
  </g>
  <g>
    <circle cx="7.145" cy="66.441" r="2.779" fill="#D2EDF6"></circle>
  </g>
  <g>
    <circle cx="66.768" cy="10.758" r="2.779" fill="#DFEBF8"></circle>
  </g>
  <g>
    <circle cx="86.767" cy="51.713" r="1.326" fill="#FDBE5C"></circle>
  </g>
  <g>
    <circle cx="31.05" cy="80.766" r="4.255" fill="#FDDDD6"></circle>
  </g>
</svg>
