<svg xmlns="http://www.w3.org/2000/svg" width="200" height="200" fill="none" viewBox="0 0 200 200" id="book-video">
  <path fill="#215988" d="M106.246 165.669C106.246 162.693 108.658 160.281 111.634 160.281H161.019C163.994 160.281 166.407 162.693 166.407 165.669V168.801H106.246V165.669Z"></path>
  <path fill="#14364B" d="M124.949 146.183H147.704L153.092 160.281H119.561L124.949 146.183Z"></path>
  <path fill="#FDF7EB" d="M83.1314 71.8855C83.1314 68.9097 85.5438 66.4973 88.5196 66.4973H184.133C187.109 66.4973 189.521 68.9097 189.521 71.8855V143.601C189.521 146.577 187.109 148.989 184.133 148.989H88.5196C85.5438 148.989 83.1314 146.577 83.1314 143.601V71.8855Z"></path>
  <path fill="#1F5986" fill-rule="evenodd" d="M90.6748 74.0407V141.445H181.978V74.0407H90.6748ZM88.5196 66.4973C85.5438 66.4973 83.1314 68.9097 83.1314 71.8855V143.601C83.1314 146.577 85.5438 148.989 88.5196 148.989H184.133C187.109 148.989 189.521 146.577 189.521 143.601V71.8855C189.521 68.9097 187.109 66.4973 184.133 66.4973H88.5196Z" clip-rule="evenodd"></path>
  <path fill="#EB5022" d="M150.645 105.837C152.177 106.646 152.177 108.84 150.645 109.649L124.748 123.322C123.312 124.08 121.586 123.04 121.586 121.416L121.586 94.0698C121.586 92.4467 123.312 91.4061 124.748 92.1639L150.645 105.837Z"></path>
  <path fill="#EA5123" d="M10.4789 36.5876C10.4789 33.6118 12.8912 31.1995 15.867 31.1995H91.7546C94.7304 31.1995 97.1427 33.6118 97.1427 36.5876V124.913C97.1427 127.888 94.7304 130.301 91.7546 130.301H10.4789V36.5876Z"></path>
  <path fill="#F57620" d="M23.9935 31.1995H91.7545C94.7303 31.1995 97.1427 33.6118 97.1427 36.5876V124.913C97.1427 127.888 94.7303 130.301 91.7546 130.301H23.9935V31.1995ZM23.9935 139.807H92.5516C95.0872 139.807 97.1427 141.862 97.1427 144.398 97.1427 146.933 95.0872 148.989 92.5516 148.989H23.9935V139.807Z"></path>
  <path fill="#EA5123" d="M10.4789 126.608H23.9935V148.989H22.3328C15.7861 148.989 10.4789 143.682 10.4789 137.135V126.608Z"></path>
  <path fill="#FEE4AA" d="M16.3333 135.883C16.3333 132.8 18.8325 130.301 21.9154 130.301H91.4873V141.465H21.9154C18.8325 141.465 16.3333 138.966 16.3333 135.883Z"></path>
  <path fill="#FBC52A" d="M38.8317 60.1784C38.8317 57.2026 41.244 54.7903 44.2198 54.7903H74.9134C77.8892 54.7903 80.3015 57.2026 80.3015 60.1784V68.6441C80.3015 71.6199 77.8892 74.0323 74.9134 74.0323H44.2198C41.244 74.0323 38.8317 71.6199 38.8317 68.6441V60.1784Z"></path>
</svg>
